<svg class="w-4 h-4" fill="currentColor" viewBox="0 0 24 24"><path d="M12.525.02c1.31-.02 2.61-.01 3.91-.02.08 1.53.63 3.09 1.75 4.17 1.12 1.11 2.7 1.62 4.24 1.79v4.03c-1.44-.05-2.89-.35-4.2-.97-.57-.26-1.1-.59-1.62-.93-.01 2.92.01 5.84-.02 8.75-.08 1.4-.54 2.79-1.35 3.94-1.31 1.92-3.58 3.17-5.91 3.21-1.43.08-2.86-.31-4.08-1.03-2.02-1.12-3.44-3.17-3.64-5.46-.23-2.39.81-4.78 2.68-6.19 1.44-1.07 3.23-1.48 4.96-1.18.25.04.49.12.72.22l.02 4.09c-.58-.3-1.25-.41-1.9-.3-.82.14-1.57.65-1.95 1.39-.45.88-.41 1.99.11 2.83.47.78 1.36 1.32 2.29 1.39.99.07 1.99-.21 2.68-.9.64-.64 1.01-1.53 1.01-2.45V.02z"></path></svg>