<svg viewBox="0 0 600 400" fill="none" xmlns="http://www.w3.org/2000/svg" class="absolute bottom-0 left-0 w-[500px] h-[350px] opacity-10 rotate-180" aria-hidden="true"><path d="M600,50 C500,80 400,20 300,60 C200,100 100,30 0,70" stroke="#4FA0B4" stroke-width="1.2" opacity="0.5"></path><path d="M600,100 C500,130 400,70 300,110 C200,150 100,80 0,120" stroke="#4FA0B4" stroke-width="1.2" opacity="0.4"></path><path d="M600,150 C500,180 400,120 300,160 C200,200 100,130 0,170" stroke="#4FA0B4" stroke-width="1.2" opacity="0.35"></path><path d="M600,200 C500,230 380,160 280,205 C180,250 80,180 0,220" stroke="#4FA0B4" stroke-width="1.2" opacity="0.3"></path><path d="M600,250 C490,275 370,205 265,250 C160,295 60,225 0,268" stroke="#4FA0B4" stroke-width="1" opacity="0.25"></path><path d="M600,300 C480,320 360,255 255,298 C150,340 50,272 0,315" stroke="#4FA0B4" stroke-width="1" opacity="0.2"></path><path d="M600,350 C470,365 350,300 245,345 C140,388 40,318 0,362" stroke="#4FA0B4" stroke-width="1" opacity="0.15"></path></svg>